<svg width="48" height="48" viewBox="0 0 48 48" fill="none" xmlns="http://www.w3.org/2000/svg">
<rect width="48" height="48" rx="4" fill="white"/>
<path d="M22.2633 23.0296C22.2633 23.0296 23.9664 22.9048 23.9664 20.9335C23.9664 18.9621 22.5731 18 20.8081 18H15.0002V29.0165H20.8081C20.8081 29.0165 24.3536 29.127 24.3536 25.7649C24.3536 25.765 24.5081 23.0296 22.2633 23.0296ZM20.39 19.9581H20.8081C20.8081 19.9581 21.5975 19.9581 21.5975 21.1043C21.5975 22.2504 21.1333 22.4165 20.6066 22.4165H17.5593V19.9581H20.39ZM20.644 27.0585H17.5593V24.1145H20.8081C20.8081 24.1145 21.9847 24.0993 21.9847 25.6274C21.9847 26.916 21.1059 27.0488 20.644 27.0585ZM29.0821 20.8029C24.7899 20.8029 24.7937 25.0358 24.7937 25.0358C24.7937 25.0358 24.4992 29.2469 29.0821 29.2469C29.0821 29.2469 32.9011 29.4623 32.9011 26.3175H30.937C30.937 26.3175 31.0025 27.5018 29.1476 27.5018C29.1476 27.5018 27.1832 27.6317 27.1832 25.5851H32.9666C32.9666 25.5851 33.5994 20.8029 29.0821 20.8029ZM27.1616 24.1145C27.1616 24.1145 27.4014 22.4165 29.1257 22.4165C30.8496 22.4165 30.828 24.1145 30.828 24.1145H27.1616ZM31.2855 20.0056H26.6808V18.649H31.2855V20.0056Z" fill="#A53DFF"/>
</svg>
