<svg width="27" height="27" viewBox="0 0 27 27" fill="none" xmlns="http://www.w3.org/2000/svg">
<path d="M25.4643 14.5366L26.9839 6.17887C27.0101 6.03477 27.0043 5.88666 26.967 5.74503C26.9296 5.6034 26.8616 5.4717 26.7677 5.35925C26.6739 5.24679 26.5565 5.15633 26.4238 5.09425C26.2912 5.03218 26.1465 5 26 5H5.83462L5.22412 1.64225C5.14053 1.18134 4.89772 0.764418 4.53808 0.464269C4.17844 0.16412 3.72481 -0.000196925 3.25637 1.77115e-07H1C0.734784 1.77115e-07 0.48043 0.105357 0.292893 0.292893C0.105357 0.48043 0 0.734784 0 1C0 1.26522 0.105357 1.51957 0.292893 1.70711C0.48043 1.89464 0.734784 2 1 2H3.25625L6.68825 20.8754C6.20001 21.3054 5.84132 21.863 5.65247 22.4856C5.46361 23.1081 5.45207 23.7711 5.61914 24.3998C5.78621 25.0286 6.12527 25.5984 6.59825 26.0451C7.07122 26.4918 7.65938 26.7979 8.29667 26.9288C8.93395 27.0597 9.59512 27.0104 10.2059 26.7864C10.8167 26.5623 11.353 26.1724 11.7544 25.6605C12.1559 25.1485 12.4067 24.5348 12.4786 23.8881C12.5505 23.2415 12.4408 22.5877 12.1616 22H18.8384C18.5134 22.6852 18.4198 23.4573 18.5716 24.2003C18.7235 24.9433 19.1125 25.6168 19.6802 26.1196C20.2479 26.6223 20.9635 26.9271 21.7194 26.9879C22.4753 27.0488 23.2305 26.8626 23.8713 26.4572C24.5122 26.0518 25.004 25.4492 25.2728 24.7401C25.5416 24.031 25.5728 23.2538 25.3617 22.5255C25.1507 21.7972 24.7087 21.1571 24.1024 20.7016C23.4961 20.2461 22.7583 19.9999 22 20H8.56188L8.01637 17H22.5126C23.2153 17.0003 23.8957 16.7539 24.4352 16.3036C24.9747 15.8534 25.3389 15.228 25.4643 14.5366ZM10.5 23.5C10.5 23.7967 10.412 24.0867 10.2472 24.3334C10.0824 24.58 9.84811 24.7723 9.57403 24.8858C9.29994 24.9993 8.99834 25.0291 8.70736 24.9712C8.41639 24.9133 8.14912 24.7704 7.93934 24.5607C7.72956 24.3509 7.5867 24.0836 7.52882 23.7926C7.47094 23.5017 7.50065 23.2001 7.61418 22.926C7.72771 22.6519 7.91997 22.4176 8.16665 22.2528C8.41332 22.088 8.70333 22 9 22C9.39769 22.0004 9.77897 22.1586 10.0602 22.4398C10.3414 22.721 10.4996 23.1023 10.5 23.5ZM23.5 23.5C23.5 23.7967 23.412 24.0867 23.2472 24.3334C23.0824 24.58 22.8481 24.7723 22.574 24.8858C22.2999 24.9993 21.9983 25.0291 21.7074 24.9712C21.4164 24.9133 21.1491 24.7704 20.9393 24.5607C20.7296 24.3509 20.5867 24.0836 20.5288 23.7926C20.4709 23.5017 20.5007 23.2001 20.6142 22.926C20.7277 22.6519 20.92 22.4176 21.1666 22.2528C21.4133 22.088 21.7033 22 22 22C22.3977 22.0004 22.779 22.1586 23.0602 22.4398C23.3414 22.721 23.4996 23.1023 23.5 23.5ZM6.19825 7H24.8018L23.4965 14.179C23.4547 14.4094 23.3333 14.6179 23.1535 14.7679C22.9737 14.918 22.7469 15.0001 22.5128 15H7.65275L6.19825 7Z" fill="#4B4B4B"/>
</svg>
