<svg width="32" height="32" viewBox="0 0 32 32" fill="none" xmlns="http://www.w3.org/2000/svg">
<path d="M28.7344 27.321L23.3317 21.9181C25.2397 19.6459 26.1968 16.7248 26.0036 13.764C25.8103 10.8033 24.4815 8.03144 22.2944 6.0265C20.1072 4.02157 17.2305 2.93834 14.2642 3.00271C11.2978 3.06709 8.47085 4.27409 6.37274 6.37202C4.27462 8.46995 3.06737 11.2968 3.00274 14.2632C2.9381 17.2295 4.02107 20.1063 6.02582 22.2936C8.03056 24.481 10.8023 25.81 13.763 26.0035C16.7238 26.197 19.6449 25.2401 21.9173 23.3323L27.3202 28.7352C27.5077 28.9228 27.7621 29.0281 28.0273 29.0281C28.2925 29.0281 28.5469 28.9228 28.7344 28.7352C28.922 28.5477 29.0273 28.2933 29.0273 28.0281C29.0273 27.7629 28.922 27.5085 28.7344 27.321ZM5.02807 14.528C5.02807 12.649 5.58523 10.8123 6.6291 9.25005C7.67298 7.68779 9.15668 6.47015 10.8926 5.75112C12.6285 5.03208 14.5386 4.84395 16.3814 5.21051C18.2242 5.57707 19.917 6.48186 21.2456 7.81046C22.5742 9.13906 23.479 10.8318 23.8455 12.6746C24.2121 14.5174 24.024 16.4276 23.3049 18.1635C22.5859 19.8994 21.3683 21.3831 19.806 22.4269C18.2437 23.4708 16.407 24.028 14.5281 24.028C12.0094 24.0251 9.59467 23.0233 7.81369 21.2423C6.03271 19.4614 5.03091 17.0467 5.02807 14.528Z" fill="#4B4B4B"/>
</svg>
